<svg xmlns="http://www.w3.org/2000/svg" width="607.921" height="162.849" viewBox="0 0 607.921 162.849">
  <g id="Group_31" data-name="Group 31" transform="translate(-7.153 -73.398)">
    <path id="Path_335" data-name="Path 335" d="M580.109,133.423v-.2H563.683a9.114,9.114,0,0,1-2.9-1.848,5.687,5.687,0,0,1-.973-6.235,5.273,5.273,0,0,1,5.123-3.371c5.059-.037,10.119-.061,15.177-.026,0-3.139,0-6.15,0-9.1h-16.43a9.094,9.094,0,0,1-2.9-1.848,5.687,5.687,0,0,1-.973-6.235,5.275,5.275,0,0,1,5.123-3.371c4.934-.036,9.868-.061,14.8-.029a33.6,33.6,0,0,0-1.984-7.7c-6.129-15.668-24.452-23.991-40.227-18.212-13.328,4.883-21.41,16.532-21.443,31.052q-.057,25.036,0,50.071a35.2,35.2,0,0,0,.68,7.423c4.236,19.582,24.332,30.74,42.942,23.4,12.3-4.854,19.2-14.34,20.187-27.61C580.582,150.274,579.974,140.928,580.109,133.423Z" transform="translate(-210.856)" fill="#ec1c24"/>
    <g id="Group_28" data-name="Group 28" transform="translate(285.124 151.73)">
      <path id="Path_336" data-name="Path 336" d="M574.575,324.592q-9.779-.07-19.561-.005c-1.047.006-1.489-.186-1.469-1.369q.027-1.59.039-3.181a5.74,5.74,0,0,0-5.747-5.769h0a5.757,5.757,0,0,0-5.747,5.833q.014,1.32.041,2.64c.03,1.392-.266,1.886-1.79,1.865-6.413-.091-12.829-.06-19.242-.013a5.274,5.274,0,0,0-5.124,3.371,5.687,5.687,0,0,0,.973,6.235,9.109,9.109,0,0,0,2.9,1.848h55.981a9.12,9.12,0,0,0,2.9-1.848,5.687,5.687,0,0,0,.974-6.235A5.275,5.275,0,0,0,574.575,324.592Z" transform="translate(-495.726 -251.529)" fill="#212226"/>
      <path id="Path_337" data-name="Path 337" d="M583.463,208.132a5.681,5.681,0,0,0-8.873,4.288c-.313,4.446-.6,8.9-2.136,13.123-5.557,15.274-16.265,24.558-32.32,27.44C523.3,256,505.17,246.634,497.654,231.27a45.783,45.783,0,0,1-4.451-18.534,5.533,5.533,0,0,0-5.9-5.546,5.648,5.648,0,0,0-5.531,5.97,50.788,50.788,0,0,0,5.6,23.262q8.481,16.111,23.391,23.331A55.535,55.535,0,0,0,533.7,264.5c5.013,0,9.8.151,15.9-1.777q.74-.237,1.469-.494a62.905,62.905,0,0,0,14.342-7.739A52.241,52.241,0,0,0,586,213.32,5.761,5.761,0,0,0,583.463,208.132Z" transform="translate(-481.774 -207.145)" fill="#212226"/>
    </g>
    <g id="Group_30" data-name="Group 30" transform="translate(7.153 77.894)">
      <g id="Group_29" data-name="Group 29">
        <path id="Path_338" data-name="Path 338" d="M7.287,171c0-2.274,2.007-4.014,3.613-4.951,6.155-3.211,7.092-5.62,7.092-12.846V103.422c0-7.226-.8-9.768-7.226-12.846C9.16,89.639,7.153,87.9,7.153,85.624c0-3.211,1.873-4.148,7.226-4.148h27.7c4.549,0,6.155.936,6.155,4.148a6.144,6.144,0,0,1-3.078,4.951c-5.62,3.212-6.422,5.62-6.422,12.846v15.121c0,3.345,1.2,4.014,3.479,1.606l20.072-19.4c5.219-5.218,4.951-8.028.134-10.838-1.338-1.338-2.275-2.677-2.275-4.416,0-3.747,3.479-4.416,10.7-4.416H87.173c5.485,0,9.768.669,9.768,4.684,0,3.612-2.677,4.683-5.62,5.352-5.085.669-7.9,1.2-13.917,7.761l-10.035,10.3c-1.338,1.606-.937,4.282,0,6.021l24.487,43.89c2.676,4.684,5.219,6.156,9.634,7.092a4.553,4.553,0,0,1,3.479,4.55c0,3.613-3.212,4.415-7.494,4.415H70.58c-3.479,0-6.557-.669-6.557-4.148,0-2.408,1.74-3.747,3.479-4.549,4.014-1.2,4.014-3.211,1.2-8.162l-15.121-25.96c-2.275-4.282-4.417-4.014-6.691-1.739L41.81,135.8a9.636,9.636,0,0,0-3.077,7.226V153.2c0,7.226.8,9.635,6.824,12.846,1.472.937,3.479,2.677,3.479,4.951,0,3.211-1.874,4.148-6.69,4.148H14.513C9.16,175.145,7.287,174.208,7.287,171Z" transform="translate(-7.153 -81.075)" fill="#212226"/>
        <path id="Path_339" data-name="Path 339" d="M176.686,162.13c0-19.8,14.987-33.988,36.664-33.988s36.665,14.184,36.665,33.988c0,19.938-14.987,34.122-36.665,34.122S176.686,181.934,176.686,162.13Zm52.454,7.494c0-13.247-6.423-32.517-17.8-32.517-8.028,0-13.916,6.557-13.916,17.664,0,13.648,6.289,32.783,17.663,32.783C223.52,187.554,229.14,180.864,229.14,169.624Z" transform="translate(-77.396 -100.576)" fill="#212226"/>
        <path id="Path_340" data-name="Path 340" d="M309.415,190.5c0-1.873,1.071-2.944,2.677-3.747,6.422-2.141,6.557-5.888,6.557-13.114V148.214c0-3.613-.4-6.021-3.613-6.557-3.078-.268-6.289-.535-6.289-2.944,0-2.676,2.409-3.747,5.487-4.951,6.423-2.275,14.05-4.817,18.734-4.817,3.747,0,5.352,1.071,5.352,4.549v6.691c0,1.2.134,1.606.535,1.606,1.338,0,4.282-13.649,21.946-13.649,11.24,0,20.071,6.155,22.212,24.755l2.141,20.072c1.2,10.3,1.338,11.24,6.824,13.515,1.874.936,2.944,2.141,2.944,4.282,0,2.409-1.472,4.282-9.367,4.282-6.155-.134-10.037-.134-16.058,0-8.965,0-11.641-1.2-11.641-4.282a4.061,4.061,0,0,1,2.81-4.014c5.352-1.874,6.289-3.078,4.951-14.452l-1.874-16.057c-1.07-9.9-4.415-14.451-11.909-14.451-5.888,0-13.515,5.62-13.515,19V173.5c0,7.627.134,10.7,6.423,13.247,1.606.8,2.81,1.739,2.81,3.747,0,2.944-1.739,4.549-13.247,4.549q-5.62-.2-11.24,0C311.824,195.048,309.415,193.442,309.415,190.5Z" transform="translate(-132.112 -100.576)" fill="#212226"/>
        <path id="Path_341" data-name="Path 341" d="M701.98,175.965c-4.548,0-8.43-2.542-10.7-8.162-8.7-22.213-17.529-44.56-26.228-66.638-2.542-6.691-4.682-8.03-9.634-9.635-2.141-.8-3.478-2.007-3.478-4.683,0-4.415,3.88-5.085,13.381-5.085h20.607c10.036,0,11.641,1.606,11.641,4.684,0,1.874-1.338,3.479-4.281,4.817-5.487,1.2-7.628,2.008-5.22,8.564,5.755,15.79,11.508,31.58,17.4,47.37,1.338,3.747,2.943,3.747,4.281.134,6.022-16.326,11.91-32.65,17.8-48.975,1.874-5.352-.134-5.754-5.888-6.958-3.078-1.07-4.149-2.81-4.149-4.817,0-3.479,2.275-4.817,8.3-4.817,6.422.134,12.578.134,19.67,0,4.281,0,6.959,1.472,6.959,4.549,0,2.944-1.472,4.015-4.417,5.085-4.415,1.071-6.823,2.275-9.232,8.564q-13.249,33.922-26.362,67.843c-2.006,5.085-5.888,8.162-10.035,8.162Z" transform="translate(-274.306 -81.359)" fill="#212226"/>
        <path id="Path_342" data-name="Path 342" d="M805.7,162.13c0-19.8,14.986-33.988,36.664-33.988s36.665,14.184,36.665,33.988c0,19.938-14.987,34.122-36.665,34.122S805.7,181.934,805.7,162.13Zm52.453,7.494c0-13.247-6.423-32.517-17.8-32.517-8.029,0-13.916,6.557-13.916,17.664,0,13.648,6.289,32.783,17.662,32.783C852.537,187.554,858.156,180.864,858.156,169.624Z" transform="translate(-338.016 -100.576)" fill="#212226"/>
        <path id="Path_343" data-name="Path 343" d="M976.615,194.836H944.9c-3.613,0-5.085-1.338-5.085-3.078,0-1.605,1.2-3.747,2.141-5.218l32.785-44.961c.936-1.2.668-2.677-.937-2.677H958.953c-3.747,0-5.352,1.606-7.761,8.965-1.472,3.479-2.944,4.549-5.621,4.549-2.408,0-5.352-.8-2.542-12.31,2.542-10.3,3.479-11.508,7.092-11.508,2.944,0,6.022,1.338,15.389,1.338h32.249c2.676,0,3.746,1.739,3.746,2.944a6.2,6.2,0,0,1-1.739,4.014l-33.185,46.3c-.669,1.07-.8,2.676,1.07,2.676h15.256c4.147,0,5.619-1.74,8.028-9.634,1.471-3.346,3.078-4.549,5.754-4.549,2.409,0,5.352.936,2.275,12.578-2.677,10.571-3.479,11.91-7.226,11.91C988.792,196.174,985.046,194.836,976.615,194.836Z" transform="translate(-393.583 -100.766)" fill="#212226"/>
      </g>
    </g>
  </g>
</svg>
